<?xml version="1.0" standalone="no"?>
<!DOCTYPE svg PUBLIC "-//W3C//DTD SVG 20010904//EN"
 "http://www.w3.org/TR/2001/REC-SVG-20010904/DTD/svg10.dtd">
<svg version="1.0" xmlns="http://www.w3.org/2000/svg"
 width="939.000000pt" height="939.000000pt" viewBox="0 0 939.000000 939.000000"
 preserveAspectRatio="xMidYMid meet">
<metadata>
Created by potrace 1.14, written by Peter Selinger 2001-2017
</metadata>
<g transform="translate(0.000000,939.000000) scale(0.100000,-0.100000)"
fill="#000000" stroke="none">
<path d="M4529 9386 c-2 -2 -26 -6 -54 -10 -65 -8 -106 -15 -125 -22 -8 -3
-26 -8 -39 -10 -56 -11 -197 -67 -336 -134 -82 -39 -188 -90 -235 -113 -47
-22 -87 -42 -90 -42 -3 -1 -68 -32 -145 -70 -77 -37 -185 -89 -240 -115 -55
-26 -163 -78 -240 -115 -77 -37 -180 -87 -230 -110 -49 -23 -157 -75 -240
-115 -82 -39 -193 -92 -245 -117 -52 -25 -156 -75 -230 -111 -74 -36 -137 -66
-140 -67 -5 -1 -55 -25 -345 -165 -68 -33 -129 -60 -135 -60 -5 0 -10 -4 -10
-10 0 -5 -5 -10 -10 -10 -10 0 -60 -23 -325 -150 -71 -34 -172 -82 -223 -107
-52 -24 -92 -46 -90 -48 5 -4 107 -59 228 -122 207 -108 481 -252 535 -283 17
-9 73 -39 125 -65 52 -27 112 -59 133 -72 20 -13 37 -20 37 -17 0 4 6 2 13 -4
6 -6 48 -29 92 -52 44 -23 116 -61 160 -85 44 -23 118 -62 165 -86 47 -24 87
-46 90 -49 3 -3 30 -17 60 -32 30 -15 111 -57 180 -94 69 -36 172 -90 229
-120 58 -30 110 -59 118 -65 7 -6 13 -8 13 -4 0 4 6 3 13 -3 6 -6 44 -27 82
-47 39 -21 111 -59 160 -85 50 -26 140 -74 200 -106 61 -32 142 -74 180 -93
39 -20 73 -40 77 -46 5 -7 8 -7 8 0 0 7 3 7 8 0 4 -5 50 -32 102 -59 52 -27
127 -66 165 -86 39 -21 113 -60 165 -87 52 -28 145 -77 205 -109 61 -31 137
-71 170 -88 33 -17 62 -33 65 -36 3 -3 28 -17 55 -31 l50 -26 100 51 c55 28
102 54 103 59 2 4 12 7 23 7 10 0 19 4 19 8 0 4 26 20 58 35 31 15 71 36 87
46 17 9 84 46 150 81 66 34 143 75 170 90 114 62 252 136 430 230 66 35 125
66 130 70 6 4 44 26 85 48 236 125 282 149 354 189 43 24 82 43 87 43 4 0 14
6 21 13 7 6 42 27 78 45 36 18 115 59 175 92 61 33 140 75 176 94 36 19 89 48
117 65 27 16 52 27 55 25 2 -2 10 2 17 11 7 8 16 15 21 15 5 0 48 22 96 48 49
27 129 70 178 97 50 26 113 60 140 75 28 15 104 55 170 90 66 35 132 72 148
82 15 11 27 17 27 14 0 -3 23 8 50 24 28 17 55 30 60 30 4 0 10 3 12 8 2 4 43
27 93 52 49 25 92 47 95 50 5 5 75 43 213 114 42 22 77 43 77 47 0 4 -30 22
-67 39 -38 18 -137 66 -221 106 -83 41 -157 74 -162 74 -6 0 -10 5 -10 10 0 6
-5 10 -11 10 -11 0 -68 27 -414 196 -88 43 -162 79 -165 79 -3 1 -86 41 -185
89 -99 49 -236 115 -305 148 -69 33 -220 107 -336 163 -116 56 -220 106 -232
109 -12 4 -22 12 -22 17 0 5 -3 8 -7 7 -9 -2 -38 11 -338 157 -339 165 -445
215 -455 215 -6 0 -10 5 -10 10 0 6 -5 10 -10 10 -6 0 -70 29 -143 64 -72 35
-134 63 -137 63 -3 -1 -17 5 -30 14 -22 14 -112 52 -132 55 -5 1 -10 3 -13 4
-3 1 -9 3 -14 4 -5 0 -13 4 -17 9 -4 4 -18 7 -31 7 -14 0 -33 4 -43 10 -10 5
-38 12 -62 14 -24 3 -43 5 -43 6 0 9 -348 24 -356 16z m246 -679 c17 -3 50
-11 75 -18 25 -7 47 -13 50 -14 3 -1 22 -9 44 -18 21 -9 42 -17 46 -17 5 0 10
-3 12 -7 2 -5 28 -20 58 -36 30 -15 91 -46 135 -70 155 -83 271 -145 380 -202
61 -32 133 -70 160 -85 28 -15 95 -51 150 -80 55 -29 123 -65 150 -80 28 -15
95 -51 150 -80 55 -29 165 -88 245 -130 80 -43 188 -100 240 -128 246 -129
237 -121 167 -157 -18 -9 -44 -24 -59 -33 -14 -9 -53 -32 -85 -51 -32 -18 -61
-39 -65 -45 -4 -6 -8 -7 -8 -2 0 5 -8 2 -17 -6 -10 -8 -52 -35 -93 -59 -41
-24 -77 -46 -80 -50 -3 -3 -26 -17 -51 -31 -25 -15 -83 -49 -128 -77 -46 -28
-85 -51 -87 -51 -3 0 -17 -9 -32 -19 -15 -10 -103 -65 -197 -121 -93 -57 -212
-129 -263 -161 -51 -33 -95 -59 -97 -59 -2 0 -41 -23 -87 -51 -46 -29 -96 -59
-113 -69 -16 -10 -45 -26 -62 -36 -18 -11 -33 -22 -33 -26 0 -5 -9 -8 -20 -8
-11 0 -20 -4 -20 -8 0 -5 -10 -14 -22 -20 -13 -7 -36 -20 -53 -30 -16 -9 -52
-31 -80 -47 -52 -31 -113 -69 -130 -82 -5 -5 -21 -14 -35 -21 -14 -7 -41 -22
-61 -35 -168 -106 -162 -104 -234 -58 -22 14 -49 31 -60 38 -41 24 -272 167
-320 198 -27 17 -72 45 -99 61 -55 32 -60 35 -243 148 -70 43 -155 96 -189
117 -33 22 -65 39 -71 39 -6 0 -13 4 -15 8 -1 5 -36 28 -76 53 -224 135 -407
248 -419 258 -7 6 -14 11 -17 11 -3 0 -40 22 -83 49 -142 88 -348 214 -373
228 -14 8 -52 32 -85 54 -33 21 -68 42 -77 45 -10 4 -18 10 -18 15 0 5 -6 9
-14 9 -7 0 -25 10 -40 21 l-27 21 53 26 c29 14 56 25 61 24 4 -1 7 2 7 8 0 5
4 10 10 10 5 0 74 32 152 70 79 39 148 70 155 70 7 0 13 5 13 10 0 6 4 10 9
10 5 0 92 40 193 89 257 125 553 268 689 335 63 31 121 56 127 56 7 0 12 4 12
8 0 6 32 23 70 37 13 4 307 147 325 157 45 26 101 51 130 58 6 1 21 7 35 13
70 28 238 40 335 24z"/>
<path d="M8710 7275 c-25 -13 -50 -28 -55 -32 -6 -4 -36 -20 -68 -35 -31 -15
-57 -33 -57 -38 0 -6 -4 -9 -9 -6 -13 9 -61 -18 -61 -34 0 -13 -1 -13 -10 0
-6 10 -10 11 -10 3 0 -7 -6 -13 -14 -13 -8 0 -22 -7 -30 -16 -9 -8 -16 -13
-16 -9 0 3 -12 -2 -27 -13 -16 -11 -38 -23 -50 -26 -13 -4 -23 -12 -23 -17 0
-6 -4 -7 -10 -4 -5 3 -10 1 -10 -4 0 -6 -3 -10 -7 -9 -9 1 -46 -13 -53 -21 -3
-3 -27 -17 -55 -31 -27 -14 -52 -27 -55 -30 -3 -3 -27 -17 -55 -31 -123 -63
-181 -94 -194 -103 -7 -6 -20 -11 -29 -13 -9 -1 -18 -7 -20 -12 -2 -6 -10 -11
-18 -11 -8 0 -14 -5 -14 -11 0 -5 -4 -8 -9 -5 -5 3 -20 -4 -35 -15 -14 -11
-26 -17 -26 -12 0 4 -4 4 -8 -2 -4 -5 -43 -28 -87 -50 -44 -22 -82 -42 -85
-45 -3 -3 -34 -21 -70 -40 -36 -19 -92 -49 -125 -66 -33 -18 -80 -43 -105 -56
-25 -12 -62 -33 -82 -45 -21 -13 -38 -20 -38 -16 0 5 -4 3 -8 -3 -10 -14 -101
-64 -118 -64 -8 0 -14 -4 -14 -9 0 -5 -15 -14 -32 -22 -18 -7 -45 -21 -60 -31
-16 -11 -28 -16 -28 -11 0 4 -4 3 -8 -2 -4 -6 -36 -26 -72 -44 -36 -19 -67
-38 -68 -43 -2 -4 -7 -6 -12 -3 -5 3 -14 0 -22 -7 -7 -7 -20 -14 -28 -16 -8
-2 -17 -7 -20 -11 -3 -4 -23 -15 -45 -25 -22 -11 -52 -27 -66 -37 -14 -10 -29
-16 -32 -12 -4 3 -9 -2 -13 -11 -3 -9 -9 -14 -13 -12 -3 2 -29 -9 -56 -24 -28
-16 -75 -41 -105 -56 -30 -15 -57 -30 -60 -33 -3 -4 -24 -15 -47 -25 -23 -10
-40 -23 -36 -29 3 -6 1 -7 -5 -3 -10 6 -48 -9 -62 -25 -3 -3 -40 -22 -82 -43
-43 -20 -78 -42 -78 -48 0 -6 -3 -9 -6 -6 -3 4 -36 -10 -72 -30 -37 -20 -85
-45 -107 -56 -22 -11 -42 -22 -45 -25 -3 -3 -33 -19 -67 -35 -36 -17 -60 -34
-56 -40 3 -6 3 -8 -2 -4 -9 9 -165 -70 -165 -83 0 -6 -4 -8 -9 -4 -5 3 -17 -2
-25 -11 -9 -8 -16 -12 -16 -9 0 4 -26 -8 -57 -26 -32 -18 -84 -47 -117 -63
-99 -52 -111 -59 -116 -65 -7 -8 -35 -25 -90 -54 -129 -67 -246 -131 -257
-140 -9 -6 -17 -6 -25 0 -7 6 -44 27 -83 48 -38 21 -92 50 -120 65 -27 15 -84
45 -125 66 -41 21 -77 42 -80 45 -3 4 -15 9 -27 13 -13 4 -23 12 -23 17 0 5
-9 9 -19 9 -11 0 -23 4 -26 10 -3 5 -23 17 -43 27 -20 9 -53 26 -72 38 -19 12
-75 43 -125 70 -49 26 -112 60 -140 75 -27 15 -102 56 -165 90 -63 34 -142 77
-175 95 -33 18 -96 51 -140 75 -44 23 -109 59 -145 78 -36 19 -90 48 -120 64
-30 16 -77 41 -105 56 -62 34 -260 140 -300 160 -16 9 -33 20 -37 26 -4 6 -8
7 -8 2 0 -5 -6 -4 -13 2 -11 9 -48 29 -237 130 -36 19 -99 52 -140 74 -41 23
-109 59 -150 81 -41 22 -97 52 -125 67 -27 15 -86 46 -130 70 -44 24 -102 55
-130 70 -27 15 -90 49 -140 75 -49 26 -108 58 -130 70 -22 12 -80 43 -130 70
-85 45 -132 70 -265 142 -30 17 -84 45 -120 64 -36 18 -67 36 -70 39 -7 7
-187 100 -194 100 -3 0 -6 -686 -6 -1524 0 -1207 3 -1526 13 -1534 6 -5 57
-33 112 -62 55 -29 127 -67 160 -85 33 -18 92 -50 130 -70 39 -21 97 -52 130
-69 33 -17 62 -34 65 -37 3 -3 30 -18 60 -33 30 -15 82 -42 115 -60 121 -65
261 -140 320 -170 33 -17 62 -34 65 -37 3 -3 30 -18 60 -33 30 -15 82 -41 115
-59 33 -18 105 -57 160 -86 55 -30 105 -57 110 -61 10 -7 175 -95 275 -147 30
-15 57 -30 60 -33 3 -3 32 -19 65 -36 50 -26 112 -58 233 -124 9 -5 62 -33
117 -63 55 -30 140 -76 189 -101 49 -26 95 -51 103 -57 7 -6 13 -8 13 -3 0 5
7 0 15 -10 8 -11 15 -17 15 -13 0 3 27 -9 59 -28 33 -18 69 -36 80 -40 12 -3
21 -11 21 -16 0 -5 6 -9 13 -9 8 0 49 -20 93 -45 43 -25 84 -45 91 -45 7 0 13
-4 13 -10 0 -5 4 -10 9 -10 6 0 74 -35 153 -78 79 -42 159 -85 178 -95 19 -10
62 -33 95 -51 33 -18 96 -52 140 -75 44 -23 86 -48 95 -55 14 -13 132 -78 245
-135 28 -13 58 -31 68 -39 15 -13 19 -13 35 -1 9 8 60 37 112 64 52 26 97 51
100 55 3 4 17 10 33 14 15 3 27 11 27 16 0 6 6 10 14 10 7 0 25 9 40 21 14 11
26 18 26 14 0 -3 17 6 37 20 21 14 41 25 44 25 4 0 41 20 81 44 41 24 84 47
96 50 12 4 22 12 22 17 0 6 4 8 9 4 5 -3 15 0 23 7 7 7 36 24 63 38 28 14 52
28 53 33 2 4 12 7 22 7 10 0 20 4 22 8 2 4 53 34 113 67 61 32 130 69 154 82
24 12 50 28 57 34 8 6 14 8 14 4 0 -4 6 -2 14 4 12 11 42 27 166 93 30 16 62
33 70 38 17 11 257 139 345 184 33 17 62 34 63 39 2 4 12 7 22 7 10 0 22 4 25
10 3 5 32 22 63 37 31 15 59 30 62 33 3 4 32 20 65 37 33 17 98 52 145 77 47
26 105 56 130 68 25 12 47 24 50 27 3 3 34 21 70 39 110 57 145 77 152 87 4 6
8 6 8 1 0 -5 6 -4 13 1 6 6 48 29 92 53 44 23 95 51 113 62 17 11 32 16 32 11
0 -4 4 -3 8 3 4 6 48 32 97 59 50 26 113 60 140 75 28 15 103 55 168 89 l117
62 0 -508 0 -509 -30 -17 c-16 -10 -33 -19 -37 -20 -5 -1 -50 -25 -101 -54
-52 -29 -96 -53 -99 -53 -3 0 -22 -10 -42 -22 -20 -13 -38 -23 -41 -23 -5 -1
-25 -11 -112 -60 -20 -11 -65 -35 -99 -53 -99 -53 -209 -112 -264 -142 -27
-15 -84 -45 -125 -67 -254 -137 -482 -259 -595 -320 -44 -24 -100 -53 -125
-65 -25 -12 -47 -24 -50 -27 -5 -6 -28 -18 -155 -84 -33 -17 -63 -36 -67 -41
-4 -6 -8 -8 -8 -3 0 4 -18 -4 -40 -18 -22 -14 -41 -25 -43 -25 -2 0 -44 -22
-93 -48 -49 -27 -138 -75 -199 -107 -60 -32 -114 -61 -120 -65 -5 -4 -64 -36
-130 -70 -66 -35 -123 -68 -127 -74 -4 -6 -8 -7 -8 -2 0 5 -9 1 -20 -9 -11
-10 -20 -15 -20 -11 0 4 -17 -5 -37 -19 -21 -14 -40 -25 -44 -25 -3 0 -38 -18
-78 -39 -39 -22 -71 -36 -71 -33 0 4 -5 0 -10 -9 -5 -9 -22 -20 -37 -24 -15
-3 -32 -12 -37 -20 -6 -7 -65 -41 -131 -76 -150 -78 -188 -99 -199 -109 -8 -8
-48 12 -221 107 -33 18 -69 37 -81 42 -12 5 -84 44 -160 87 -76 42 -168 92
-204 112 -36 19 -96 52 -133 73 -38 22 -73 39 -78 39 -5 0 -9 5 -9 11 0 5 -4
8 -9 4 -5 -3 -16 2 -24 10 -9 8 -22 15 -30 15 -9 0 -17 4 -19 8 -1 5 -46 32
-98 59 -52 28 -124 66 -160 85 -36 20 -101 55 -145 78 -44 24 -105 56 -135 73
-30 16 -89 47 -130 69 -41 22 -120 64 -175 94 -55 30 -116 62 -135 72 -19 9
-37 19 -40 22 -3 4 -36 22 -75 40 -38 19 -72 37 -75 40 -3 3 -32 20 -65 37
-72 37 -179 94 -295 158 -47 25 -93 49 -102 52 -10 3 -18 9 -18 14 0 5 -7 9
-15 9 -8 0 -36 13 -62 28 -26 16 -97 55 -158 87 -60 32 -132 70 -160 85 -27
15 -171 93 -320 173 -148 80 -308 166 -355 191 -47 26 -97 52 -112 57 -16 6
-28 15 -28 20 0 5 -9 9 -20 9 -11 0 -20 5 -20 12 0 6 -3 8 -6 5 -4 -4 -19 2
-34 13 -16 11 -30 20 -33 20 -2 0 -36 18 -76 39 l-71 39 0 -508 c0 -394 3
-510 13 -518 6 -5 46 -27 87 -48 41 -21 77 -40 80 -43 3 -3 34 -21 70 -39 36
-18 101 -52 145 -76 44 -23 116 -62 160 -86 44 -23 109 -58 145 -78 71 -39
139 -75 275 -147 50 -26 113 -60 140 -75 28 -15 80 -44 118 -64 37 -20 97 -53
135 -73 37 -20 99 -53 139 -74 39 -20 91 -48 115 -62 23 -13 88 -48 143 -77
55 -29 125 -67 155 -83 30 -17 89 -48 130 -70 41 -21 102 -53 135 -71 109 -59
199 -108 250 -136 28 -15 95 -51 150 -80 55 -29 123 -65 150 -80 58 -32 142
-77 270 -145 50 -26 104 -56 120 -65 17 -10 75 -41 130 -70 55 -29 123 -65
150 -80 28 -15 95 -51 150 -80 55 -30 140 -77 188 -107 49 -29 95 -53 103 -53
8 0 14 -4 14 -9 0 -5 12 -14 28 -20 15 -5 64 -30 108 -55 45 -24 85 -41 90
-36 5 4 34 21 64 37 117 64 216 117 235 128 11 6 38 22 60 36 22 14 90 52 150
84 61 32 137 73 170 91 33 18 80 43 105 56 147 78 176 94 182 103 4 5 8 6 8 1
0 -5 6 -4 13 1 11 10 71 42 227 125 36 19 92 50 125 68 33 18 112 60 175 93
63 33 117 63 120 66 3 3 39 23 80 44 71 35 131 67 280 149 36 19 97 52 135 72
116 61 346 185 485 261 52 29 105 55 118 59 12 4 22 12 22 17 0 5 9 9 20 9 11
0 20 4 20 8 0 4 26 20 58 36 31 15 87 44 124 64 139 76 214 116 246 131 17 8
32 19 32 23 0 4 7 8 15 8 9 0 32 10 53 23 20 13 52 30 70 38 17 8 32 18 32 22
0 5 4 6 9 3 5 -3 14 1 21 9 7 8 16 15 21 15 4 0 59 28 121 61 178 97 227 123
323 174 50 27 104 56 120 65 l30 17 3 1526 c2 1574 3 1553 -33 1518 -6 -5 -44
-27 -85 -49 -92 -48 -229 -122 -335 -179 -44 -24 -96 -51 -115 -61 -19 -9 -37
-19 -40 -22 -3 -3 -41 -23 -85 -45 -44 -22 -82 -43 -85 -46 -3 -3 -18 -12 -35
-20 -16 -9 -66 -35 -110 -58 -44 -24 -118 -64 -165 -89 -47 -25 -115 -62 -152
-83 -38 -21 -68 -35 -68 -31 0 4 -4 3 -8 -3 -4 -5 -16 -15 -27 -21 -21 -11
-256 -135 -310 -163 -16 -9 -32 -18 -35 -21 -3 -3 -35 -20 -73 -39 -37 -18
-70 -37 -73 -42 -3 -5 -14 -9 -24 -9 -10 0 -20 -4 -22 -8 -1 -4 -86 -52 -188
-107 -102 -54 -203 -108 -225 -120 -22 -12 -89 -49 -150 -81 -60 -32 -127 -68
-147 -79 -21 -11 -79 -42 -130 -69 -51 -26 -97 -52 -103 -56 -5 -4 -68 -38
-140 -75 -71 -37 -134 -71 -140 -75 -5 -4 -64 -36 -130 -70 -66 -35 -124 -66
-130 -70 -5 -4 -64 -36 -130 -70 -66 -35 -122 -66 -125 -70 -3 -3 -21 -12 -40
-20 -19 -8 -37 -16 -40 -19 -8 -9 -38 -27 -160 -92 -63 -34 -141 -77 -174 -96
-50 -29 -61 -32 -75 -20 -9 7 -39 25 -68 39 -61 31 -213 113 -353 191 -19 10
-41 24 -49 31 -8 6 -17 10 -20 10 -3 -1 -24 8 -46 21 -75 43 -480 263 -700
380 -49 27 -153 83 -230 124 -77 42 -158 85 -180 96 -22 11 -41 23 -43 28 -2
4 -8 7 -13 7 -6 0 -64 29 -129 66 -66 36 -123 65 -127 66 -4 0 -19 8 -33 18
-14 9 -38 24 -55 32 -16 8 -64 33 -105 55 -41 22 -106 57 -145 78 -38 21 -108
58 -155 83 -91 49 -138 74 -265 142 -44 24 -128 69 -187 101 -59 33 -111 59
-117 59 -8 0 -11 156 -11 515 l0 516 52 -29 c92 -51 230 -125 398 -214 30 -16
78 -41 105 -56 97 -53 251 -136 315 -170 36 -19 88 -47 115 -62 28 -15 100
-54 160 -86 61 -32 133 -71 160 -86 28 -15 79 -42 115 -60 36 -18 67 -35 70
-38 3 -3 18 -12 35 -20 16 -8 88 -47 160 -86 71 -39 184 -99 250 -134 157 -83
207 -111 223 -123 6 -5 12 -6 12 -2 0 5 8 2 18 -7 9 -8 46 -29 82 -48 36 -18
81 -42 100 -53 19 -11 67 -37 105 -57 39 -20 106 -56 150 -80 44 -23 87 -48
95 -55 8 -7 40 -25 70 -41 30 -15 57 -30 60 -33 3 -4 50 -29 105 -57 l100 -51
50 30 c43 25 95 53 273 146 15 8 29 18 30 23 2 4 12 8 22 8 10 0 20 3 22 8 2
4 25 18 53 32 27 14 54 28 60 33 18 13 119 67 148 78 15 6 27 15 27 20 0 5 9
9 19 9 11 0 23 5 26 10 7 11 120 71 131 69 4 0 10 3 13 8 6 9 48 33 256 143
55 30 127 69 160 87 33 19 72 39 88 44 15 6 27 15 27 19 0 4 12 11 27 15 16 4
34 11 41 17 7 6 32 21 55 33 23 11 76 39 117 62 207 112 364 197 430 231 30
15 84 44 120 64 36 19 101 55 145 78 44 24 107 58 140 75 194 105 283 152 305
163 14 7 48 25 75 41 28 15 104 56 170 91 66 34 134 71 150 80 29 17 84 46
260 140 44 24 103 55 130 70 28 15 79 43 115 62 236 127 289 155 325 175 22
12 48 25 58 29 16 6 17 40 17 515 0 280 -3 509 -7 509 -5 -1 -28 -12 -53 -25z"/>
</g>
</svg>
